<?xml version="1.0" encoding="UTF-8"?>
<svg width="200" height="200" viewBox="0 0 200 200" fill="none" xmlns="http://www.w3.org/2000/svg">
  <!-- Simplified Zambia Coat of Arms -->
  <circle cx="100" cy="100" r="95" fill="#FFFFFF" stroke="#000000" stroke-width="2"/>
  
  <!-- Shield -->
  <path d="M100 30 L60 50 L60 120 L100 150 L140 120 L140 50 Z" fill="#FFFFFF" stroke="#000000" stroke-width="2"/>
  
  <!-- Shield Stripes -->
  <rect x="60" y="50" width="26.67" height="70" fill="#000000"/>
  <rect x="86.67" y="50" width="26.67" height="70" fill="#FF0000"/>
  <rect x="113.33" y="50" width="26.67" height="70" fill="#FFA500"/>
  
  <!-- Eagle on top -->
  <path d="M100 25 L115 35 L100 45 L85 35 Z" fill="#A52A2A" stroke="#000000" stroke-width="1"/>
  
  <!-- Supporters - Simplified -->
  <path d="M50 120 C40 100 45 70 60 60" stroke="#000000" stroke-width="2" fill="none"/>
  <path d="M150 120 C160 100 155 70 140 60" stroke="#000000" stroke-width="2" fill="none"/>
  
  <!-- Banner -->
  <path d="M50 130 L150 130 L140 140 L60 140 Z" fill="#009E60" stroke="#000000" stroke-width="1"/>
</svg>