<?xml version="1.0" encoding="UTF-8"?>
<svg width="400" height="480" viewBox="0 0 400 480" fill="none" xmlns="http://www.w3.org/2000/svg">
  <!-- Zambia Coat of Arms - Based on Official Design -->
  
  <!-- Eagle at top -->
  <g transform="translate(200, 70) scale(1.5)">
    <path d="M0 -30 C-5 -25 -15 -20 -30 -15 C-15 -10 -5 0 0 10 C5 0 15 -10 30 -15 C15 -20 5 -25 0 -30Z" fill="#FF8C00" stroke="#000000" stroke-width="1"/>
    <path d="M-30 -15 C-40 -5 -40 5 -30 15 C-20 25 -10 30 0 35 C10 30 20 25 30 15 C40 5 40 -5 30 -15" fill="#FF8C00" stroke="#000000" stroke-width="1"/>
    <!-- Eagle wings -->
    <path d="M-30 -15 C-45 -10 -55 0 -60 15 C-45 5 -35 0 -30 15" fill="#FF8C00" stroke="#000000" stroke-width="1"/>
    <path d="M30 -15 C45 -10 55 0 60 15 C45 5 35 0 30 15" fill="#FF8C00" stroke="#000000" stroke-width="1"/>
    <!-- Eagle legs -->
    <path d="M-10 35 L-15 45 M10 35 L15 45" stroke="#FF8C00" stroke-width="2"/>
    <path d="M-15 45 L-20 45 M15 45 L20 45" stroke="#FF8C00" stroke-width="2"/>
  </g>
  
  <!-- Crossed pick and hoe -->
  <g transform="translate(200, 120)">
    <line x1="-60" y1="-20" x2="60" y2="20" stroke="#8B4513" stroke-width="10"/>
    <line x1="60" y1="-20" x2="-60" y2="20" stroke="#8B4513" stroke-width="10"/>
    <path d="M-60 -20 L-80 -40 L-90 -35 L-65 -15 Z" fill="#CCCCCC" stroke="#000000"/>
    <path d="M60 -20 L80 -40 L90 -35 L65 -15 Z" fill="#CCCCCC" stroke="#000000"/>
  </g>
  
  <!-- Shield with wavy lines -->
  <path d="M200 150 L120 180 L120 340 L200 380 L280 340 L280 180 Z" fill="none" stroke="#000000" stroke-width="3"/>
  
  <!-- Wavy black and white lines inside shield -->
  <g transform="translate(200, 260)">
    <path d="M-70 -70 C-50 -60 -30 -70 -10 -60 C10 -50 30 -60 50 -50 C70 -40 70 -40 70 -40 L70 70 C50 60 30 70 10 60 C-10 50 -30 60 -50 50 C-70 40 -70 40 -70 40 Z" fill="#FFFFFF" stroke="#000000" stroke-width="2"/>
    <path d="M-70 -50 C-50 -40 -30 -50 -10 -40 C10 -30 30 -40 50 -30 C70 -20 70 -20 70 -20 L70 90 C50 80 30 90 10 80 C-10 70 -30 80 -50 70 C-70 60 -70 60 -70 60 Z" fill="#000000" stroke="none"/>
    <path d="M-70 -30 C-50 -20 -30 -30 -10 -20 C10 -10 30 -20 50 -10 C70 0 70 0 70 0 L70 110 C50 100 30 110 10 100 C-10 90 -30 100 -50 90 C-70 80 -70 80 -70 80 Z" fill="#FFFFFF" stroke="none"/>
    <path d="M-70 -10 C-50 0 -30 -10 -10 0 C10 10 30 0 50 10 C70 20 70 20 70 20 L70 130 C50 120 30 130 10 120 C-10 110 -30 120 -50 110 C-70 100 -70 100 -70 100 Z" fill="#000000" stroke="none"/>
  </g>
  
  <!-- Man and woman holding shield -->
  <g transform="translate(70, 280)">
    <!-- Man on left -->
    <path d="M0 0 C0 -20 10 -40 30 -60 C40 -70 50 -90 45 -110" stroke="#000000" stroke-width="1" fill="none"/>
    <path d="M45 -110 C40 -120 30 -130 20 -120 C15 -115 20 -105 30 -110" fill="#73453B" stroke="#000000" stroke-width="1"/>
    <path d="M30 -60 L60 -60 L60 -20 L45 -20 L40 -10 L35 -20 L30 -20 Z" fill="#7BCFA6" stroke="#000000" stroke-width="1"/>
    <path d="M40 -10 L40 20 L30 20 L30 40 L50 40 L50 20 L40 20" fill="#7BCFA6" stroke="#000000" stroke-width="1"/>
    <path d="M30 40 L25 60 L30 80 L40 80 L45 60 L40 40" fill="#73453B" stroke="#000000" stroke-width="1"/>
    <path d="M25 60 L15 70 L20 80" stroke="#73453B" stroke-width="1" fill="none"/>
    <path d="M45 60 L55 70 L50 80" stroke="#73453B" stroke-width="1" fill="none"/>
    <path d="M15 70 L15 80 L10 85 L20 85 L20 80" fill="#FF0000" stroke="#000000" stroke-width="1"/>
    <path d="M55 70 L55 80 L50 85 L60 85 L60 80" fill="#FF0000" stroke="#000000" stroke-width="1"/>
  </g>
  
  <g transform="translate(330, 280)">
    <!-- Woman on right -->
    <path d="M0 0 C0 -20 -10 -40 -30 -60 C-40 -70 -50 -90 -45 -110" stroke="#000000" stroke-width="1" fill="none"/>
    <path d="M-45 -110 C-40 -120 -30 -130 -20 -120 C-15 -115 -20 -105 -30 -110" fill="#73453B" stroke="#000000" stroke-width="1"/>
    <path d="M-60 -20 C-50 -40 -40 -60 -30 -60 L-30 -20 L-35 0 L-40 -20 L-50 -20 Z" fill="#FF0000" stroke="#000000" stroke-width="1"/>
    <path d="M-35 0 L-35 20 L-45 20 L-45 40 L-25 40 L-25 20 L-35 20" fill="#FF0000" stroke="#000000" stroke-width="1"/>
    <path d="M-45 40 L-50 60 L-45 80 L-35 80 L-30 60 L-35 40" fill="#73453B" stroke="#000000" stroke-width="1"/>
    <path d="M-50 60 L-60 70 L-55 80" stroke="#73453B" stroke-width="1" fill="none"/>
    <path d="M-30 60 L-20 70 L-25 80" stroke="#73453B" stroke-width="1" fill="none"/>
    <path d="M-60 70 L-60 80 L-65 85 L-55 85 L-55 80" fill="#FF0000" stroke="#000000" stroke-width="1"/>
    <path d="M-20 70 L-20 80 L-25 85 L-15 85 L-15 80" fill="#FF0000" stroke="#000000" stroke-width="1"/>
  </g>
  
  <!-- Green base with zebra -->
  <g transform="translate(200, 380)">
    <path d="M-100 0 C-80 -10 -40 -15 0 -15 C40 -15 80 -10 100 0 L80 20 C60 10 30 5 0 5 C-30 5 -60 10 -80 20 Z" fill="#28A035" stroke="#000000" stroke-width="1"/>
    <!-- Small zebra silhouette -->
    <g transform="translate(50, 0) scale(0.2)">
      <path d="M0 0 L-20 5 L-30 20 L-20 30 L0 25 L20 30 L30 20 L20 5 Z" fill="#FFFFFF" stroke="#000000" stroke-width="1"/>
      <path d="M-20 5 L-20 20 M-10 0 L-10 25 M0 0 L0 25 M10 0 L10 25 M20 5 L20 20" stroke="#000000" stroke-width="3"/>
    </g>
  </g>
  
  <!-- Banner with motto -->
  <g transform="translate(200, 420)">
    <path d="M-150 0 C-130 -10 -100 -15 -60 -15 L60 -15 C100 -15 130 -10 150 0 L130 15 C110 10 90 5 60 5 L-60 5 C-90 5 -110 10 -130 15 Z" fill="#FFFFFF" stroke="#000000" stroke-width="2"/>
    <text x="-90" y="0" font-family="Arial" font-size="14" font-weight="bold" fill="#000000">ONE ZAMBIA</text>
    <text x="30" y="0" font-family="Arial" font-size="14" font-weight="bold" fill="#000000">ONE NATION</text>
  </g>
  
  <!-- Corn symbol at bottom -->
  <g transform="translate(200, 440)">
    <path d="M0 -10 L-5 10 L0 15 L5 10 L0 -10 Z" fill="#28A035" stroke="#000000" stroke-width="1"/>
    <path d="M0 -10 L0 15" stroke="#28A035" stroke-width="3"/>
    <path d="M-5 10 L5 10" stroke="#000000" stroke-width="1"/>
    <ellipse cx="0" cy="0" rx="3" ry="5" fill="#D2691E" stroke="#000000" stroke-width="0.5"/>
  </g>
</svg>