<?xml version="1.0" encoding="UTF-8" standalone="no"?>
<svg xmlns="http://www.w3.org/2000/svg" viewBox="0 0 800 900">
  <!-- Eagle -->
  <path d="M400 50c-20 0-36.7 7.3-50 22-13.3 14.7-20 31.3-20 50 0 20 6.7 36.7 20 50 13.3 13.3 30 20 50 20s36.7-6.7 50-20c13.3-13.3 20-30 20-50 0-18.7-6.7-35.3-20-50-13.3-14.7-30-22-50-22z" fill="#F4A460"/>

  <!-- Mining tools (pick and hoe crossed) -->
  <path d="M350 150l-40-40M450 150l40-40" stroke="saddlebrown" stroke-width="8"/>

  <!-- Shield with wavy pattern -->
  <path d="M400 200c-66.7 0-123.3 23.3-170 70s-70 103.3-70 170c0 66.7 23.3 123.3 70 170s103.3 70 170 70c66.7 0 123.3-23.3 170-70s70-103.3 70-170c0-66.7-23.3-123.3-70-170s-103.3-70-170-70z" fill="none" stroke="black" stroke-width="4"/>
  <path d="M300 300c20 10 40 10 60 0s40-10 60 0-40 20-60 30-40-20-60-30zM300 380c20 10 40 10 60 0s40-10 60 0-40 20-60 30-40-20-60-30zM300 460c20 10 40 10 60 0s40-10 60 0-40 20-60 30-40-20-60-30z" fill="black"/>

  <!-- Figures -->
  <!-- Left figure in green -->
  <path d="M200 400c-20 0-36.7 7.3-50 22-13.3 14.7-20 31.3-20 50v100c0 20 6.7 36.7 20 50 13.3 13.3 30 20 50 20" fill="#00A651"/>

  <!-- Right figure in red -->
  <path d="M600 400c20 0 36.7 7.3 50 22 13.3 14.7 20 31.3 20 50v100c0 20-6.7 36.7-20 50-13.3 13.3-30 20-50 20" fill="#FF0000"/>

  <!-- Base with corn -->
  <path d="M250 750h300" stroke="green" stroke-width="4"/>
  <path d="M400 750l-20-40M400 750l20-40" stroke="gold" stroke-width="4"/>

  <!-- Banner -->
  <path d="M200 800h400" stroke="white" fill="none" stroke-width="2"/>
  <text x="400" y="820" text-anchor="middle" font-family="Arial" font-size="24" fill="black">ONE ZAMBIA ONE NATION</text>
</svg>